Coordinates
version=1
nRows=14
nColumns=40
inDegrees=yes

Units are S.I. units (second, meters, Newtons, ...)
If the header above contains a line with 'inDegrees', this indicates whether rotational values are in degrees (yes) or radians (no).

endheader
time	pelvis_tilt	pelvis_list	pelvis_rotation	pelvis_tx	pelvis_ty	pelvis_tz	hip_flexion_r	hip_adduction_r	hip_rotation_r	knee_angle_r	knee_angle_r_beta	ankle_angle_r	subtalar_angle_r	mtp_angle_r	hip_flexion_l	hip_adduction_l	hip_rotation_l	knee_angle_l	knee_angle_l_beta	ankle_angle_l	subtalar_angle_l	mtp_angle_l	lumbar_extension	lumbar_bending	lumbar_rotation	arm_flex_r	arm_add_r	arm_rot_r	elbow_flex_r	pro_sup_r	wrist_flex_r	wrist_dev_r	arm_flex_l	arm_add_l	arm_rot_l	elbow_flex_l	pro_sup_l	wrist_flex_l	wrist_dev_l
      3.20000000	     -7.58211922	     -1.42507214	     -1.33686904	     -0.39042399	      0.90053752	     -1.05193841	     57.57487180	      1.03803081	     -8.54888382	      7.29005811	      0.12723552	      1.85489187	      0.00000000	      0.00000000	     45.70043525	     -1.11794834	     -4.76262359	     67.20505548	      1.17294949	     15.27279009	      0.00000000	      0.00000000	     -8.74909527	     -5.02103985	      7.10507389	     89.96707281	    -19.06976665	     14.10995815	     47.96581015	     45.72300086	      0.00000000	      0.00000000	     89.94483877	    -37.45096323	      3.06027872	     48.47135060	     78.01922420	      0.00000000	      0.00000000
      3.20500000	     -7.66151217	     -1.45352220	     -1.32384490	     -0.39051389	      0.89982630	     -1.05179180	     57.69202840	      1.05820689	     -8.67666970	      7.39041987	      0.12898716	      1.90765632	      0.00000000	      0.00000000	     45.86935827	     -1.14175402	     -4.70936643	     67.37227914	      1.17586810	     15.41587433	      0.00000000	      0.00000000	     -8.68705286	     -5.01745646	      7.13517432	     89.96707103	    -19.12016725	     14.08008027	     47.95557117	     45.36532897	      0.00000000	      0.00000000	     89.94539541	    -37.30061318	      3.51493655	     48.68440865	     71.88029347	      0.00000000	      0.00000000
      3.21000000	     -7.73129974	     -1.54573276	     -1.29097838	     -0.39074972	      0.89917315	     -1.05168652	     57.69633710	      1.12326261	     -8.72361919	      7.23400757	      0.12625725	      1.77530517	      0.00000000	      0.00000000	     46.04984175	     -1.21708568	     -4.63056205	     67.52263691	      1.17849233	     15.42397792	      0.00000000	      0.00000000	     -8.66409284	     -4.95249663	      7.14125684	     89.96698425	    -19.16933991	     14.07989571	     48.03788036	     44.95724463	      0.00000000	      0.00000000	     89.94580666	    -37.15990152	      4.19504559	     49.08878469	     63.83905562	      0.00000000	      0.00000000
      3.21500000	     -7.77004600	     -1.50109853	     -1.28777768	     -0.39091619	      0.89862176	     -1.05168470	     57.71480486	      1.11686347	     -8.57429629	      7.16574974	      0.12506593	      1.72573294	      0.00000000	      0.00000000	     46.14845088	     -1.19917206	     -4.69059708	     67.61582362	      1.18011875	     15.42880970	      0.00000000	      0.00000000	     -8.69053884	     -4.99412080	      7.01932140	     89.96712356	    -19.09689298	     14.09200417	     48.09776489	     45.12086843	      0.00000000	      0.00000000	     89.94594862	    -37.23939933	      2.92489720	     48.79468743	     77.47146181	      0.00000000	      0.00000000
      3.22000000	     -7.80559763	     -1.37825920	     -1.31881869	     -0.39103160	      0.89797433	     -1.05168008	     57.79294991	      1.07418569	     -8.52829984	      7.24020033	      0.12636533	      1.88173655	      0.00000000	      0.00000000	     46.24288279	     -1.12329489	     -4.79829834	     67.72101703	      1.18195472	     15.48002678	      0.00000000	      0.00000000	     -8.67482697	     -5.13821306	      7.03516733	     89.96719107	    -19.02366437	     13.88915030	     48.07557809	     44.92166861	      0.00000000	      0.00000000	     89.94628347	    -37.13334037	      3.22407196	     48.94778091	     72.95178571	      0.00000000	      0.00000000
      3.22500000	     -7.85897321	     -1.37539561	     -1.29509056	     -0.39110341	      0.89744414	     -1.05157550	     57.78770122	      1.07968109	     -8.48983761	      7.09409471	      0.12381531	      1.77932418	      0.00000000	      0.00000000	     46.36633567	     -1.12364554	     -4.78608485	     67.83144231	      1.18388200	     15.48293919	      0.00000000	      0.00000000	     -8.65747326	     -5.16199866	      6.99361479	     89.96720724	    -18.98548389	     13.82963735	     48.10646420	     44.83032166	      0.00000000	      0.00000000	     89.94648307	    -37.10039039	      3.45759451	     49.11995391	     70.42296192	      0.00000000	      0.00000000
      3.23000000	     -7.88950957	     -1.40240028	     -1.26980663	     -0.39121547	      0.89687936	     -1.05153757	     57.79223039	      1.10049670	     -8.49715072	      7.05150898	      0.12307205	      1.88787000	      0.00000000	      0.00000000	     46.47597449	     -1.15977028	     -4.78510592	     67.96241448	      1.18616790	     15.50903458	      0.00000000	      0.00000000	     -8.66053520	     -5.16100127	      7.01507559	     89.96720999	    -19.05629888	     13.81915181	     48.12049794	     44.60941954	      0.00000000	      0.00000000	     89.94682037	    -36.92539341	      3.88275211	     49.41946846	     63.94626563	      0.00000000	      0.00000000
      3.23500000	     -7.97789164	     -1.38040747	     -1.29491360	     -0.39135644	      0.89620279	     -1.05139594	     57.90880645	      1.11600200	     -8.62658399	      7.05622820	      0.12315441	      1.75935775	      0.00000000	      0.00000000	     46.64749024	     -1.18111271	     -4.81747593	     68.09687560	      1.18851469	     15.52810743	      0.00000000	      0.00000000	     -8.61973969	     -5.16939016	      6.94412545	     89.96731090	    -18.87200157	     13.68332125	     48.16077102	     44.32966569	      0.00000000	      0.00000000	     89.94690187	    -37.02161625	      2.70449017	     49.08661333	     77.16539609	      0.00000000	      0.00000000
      3.24000000	     -8.06909880	     -1.40732544	     -1.29254700	     -0.39150905	      0.89544084	     -1.05132006	     58.01174254	      1.14754749	     -8.65615594	      7.05295832	      0.12309734	      1.80440485	      0.00000000	      0.00000000	     46.84360386	     -1.21663076	     -4.79052735	     68.26612023	      1.19146857	     15.58590488	      0.00000000	      0.00000000	     -8.55681979	     -5.15604502	      6.96981920	     89.96732155	    -18.90839188	     13.62836823	     48.22357930	     44.28219078	      0.00000000	      0.00000000	     89.94733418	    -36.92095770	      3.14128187	     49.29050204	     72.29445784	      0.00000000	      0.00000000
      3.24500000	     -8.11972542	     -1.39573902	     -1.32496524	     -0.39163639	      0.89485944	     -1.05113085	     58.06714194	      1.19210822	     -8.66893423	      7.03590469	      0.12279970	      1.81198677	      0.00000000	      0.00000000	     46.96233471	     -1.27532941	     -4.86031668	     68.39724378	      1.19375710	     15.63728339	      0.00000000	      0.00000000	     -8.53470030	     -5.19415796	      6.98413349	     89.96735623	    -18.88845145	     13.57174475	     48.22768960	     44.24068846	      0.00000000	      0.00000000	     89.94760726	    -36.84004176	      3.33906330	     49.44216450	     69.24633266	      0.00000000	      0.00000000
      3.25000000	     -8.14977397	     -1.38382873	     -1.33152197	     -0.39172025	      0.89436481	     -1.05102274	     58.08761664	      1.20823776	     -8.64992823	      7.00853271	      0.12232197	      1.77455262	      0.00000000	      0.00000000	     47.05096772	     -1.30419265	     -4.90908835	     68.49065665	      1.19538747	     15.62370519	      0.00000000	      0.00000000	     -8.55098402	     -5.21491394	      6.91266948	     89.96746976	    -18.75985741	     13.47019390	     48.24647959	     43.73028163	      0.00000000	      0.00000000	     89.94758654	    -36.83970640	      2.46765004	     49.32726207	     77.11922929	      0.00000000	      0.00000000
      3.25500000	     -8.19633778	     -1.39760060	     -1.33777894	     -0.39189729	      0.89372460	     -1.05097757	     58.18039096	      1.22670423	     -8.71225041	      7.07389447	      0.12346275	      1.82114654	      0.00000000	      0.00000000	     47.18132322	     -1.32549889	     -4.87085125	     68.63404187	      1.19789001	     15.69230726	      0.00000000	      0.00000000	     -8.52544264	     -5.22448399	      6.98992150	     89.96744438	    -18.90465311	     13.49216989	     48.27035662	     43.80569261	      0.00000000	      0.00000000	     89.94813544	    -36.65388058	      3.26990511	     49.61991283	     67.62949288	      0.00000000	      0.00000000
      3.26000000	     -8.21509903	     -1.40085017	     -1.34489220	     -0.39203785	      0.89313443	     -1.05093894	     58.19760390	      1.24290696	     -8.82791744	      7.04629306	      0.12298101	      1.84561608	      0.00000000	      0.00000000	     47.28242074	     -1.36674575	     -4.92288351	     68.77233284	      1.20030364	     15.74637370	      0.00000000	      0.00000000	     -8.54382943	     -5.25224400	      7.04019847	     89.96745200	    -18.98334602	     13.43892975	     48.34395300	     43.88178229	      0.00000000	      0.00000000	     89.94839108	    -36.46678139	      3.71600300	     49.97738287	     60.97461335	      0.00000000	      0.00000000
      3.26500000	     -8.25381497	     -1.36052233	     -1.34658088	     -0.39210834	      0.89264308	     -1.05090695	     58.22087175	      1.22906297	     -8.72803665	      7.00340660	      0.12223250	      1.76700583	      0.00000000	      0.00000000	     47.37415373	     -1.37118165	     -4.99129661	     68.86347605	      1.20189439	     15.70300139	      0.00000000	      0.00000000	     -8.55975934	     -5.26550535	      6.92227881	     89.96759392	    -18.73967853	     13.27062815	     48.41033840	     42.93226966	      0.00000000	      0.00000000	     89.94841173	    -36.59440179	      2.27640347	     49.54185756	     77.01437925	      0.00000000	      0.00000000
